<svg xmlns="http://www.w3.org/2000/svg" viewBox="0 0 40.05 33.09"><title>Recurso 3</title><g id="Capa_2" data-name="Capa 2"><g id="Capa_1-2" data-name="Capa 1"><path d="M21.75,11.33h-1.6a.46.46,0,0,0-.46.46v2a.46.46,0,0,0,.46.46h1.6a2.36,2.36,0,0,0,1.46-.36,1.28,1.28,0,0,0,.47-1.08,1.31,1.31,0,0,0-.48-1.07A2.26,2.26,0,0,0,21.75,11.33Z"/><path d="M38.86,3.67A7.8,7.8,0,0,0,26,3.11,10.89,10.89,0,0,0,15.06,6,13.6,13.6,0,1,0,26.39,24.07a10.89,10.89,0,0,0,7.35-8.59A7.8,7.8,0,0,0,38.86,3.67ZM18.66,26.5a.44.44,0,0,1-.44.44H7.49A.48.48,0,0,1,7,26.46V11.33a.47.47,0,0,1,.47-.47h3.07a.48.48,0,0,1,.48.48V23.5a.46.46,0,0,0,.46.46h6.68a.5.5,0,0,1,.5.5Zm5.56-10,2.33,3.21a.46.46,0,0,1-.38.74H23.66a.46.46,0,0,1-.38-.2s-1.33-2.67-2.37-3.37a.84.84,0,0,0-.76,0c-.68.68-.46,3.11-.46,3.11a.46.46,0,0,1-.46.46H16.83a.46.46,0,0,1-.46-.46V9.92A.92.92,0,0,1,17.29,9H22a7.18,7.18,0,0,1,2.76.47,3.72,3.72,0,0,1,1.69,1.29,3.22,3.22,0,0,1,.56,1.87,3,3,0,0,1-.83,2.12,4,4,0,0,1-1.78,1A.46.46,0,0,0,24.23,16.49ZM36.93,9.61a4.31,4.31,0,0,1-1.34,1.86,4.69,4.69,0,0,1-3,1,4.8,4.8,0,0,1-2.47-.62,4.21,4.21,0,0,1-1.64-1.74,5.45,5.45,0,0,1-.58-2.55A5.45,5.45,0,0,1,28.44,5a4.21,4.21,0,0,1,1.64-1.74,4.8,4.8,0,0,1,2.47-.62,4.71,4.71,0,0,1,3,1,4.26,4.26,0,0,1,1.32,1.82.58.58,0,0,1-.53.8H35a.57.57,0,0,1-.48-.3,2.21,2.21,0,0,0-.69-.74,2.34,2.34,0,0,0-1.34-.38,2,2,0,0,0-1.65.75,3,3,0,0,0-.63,2,3,3,0,0,0,.63,2,2.05,2.05,0,0,0,1.65.74,2.34,2.34,0,0,0,1.34-.38,2.24,2.24,0,0,0,.7-.75A.54.54,0,0,1,35,8.86h1.43A.55.55,0,0,1,36.93,9.61Z"/></g></g></svg>