<svg xmlns="http://www.w3.org/2000/svg" viewBox="0 0 356.69 356.69"><title>Recurso 9</title><g id="Capa_2" data-name="Capa 2"><g id="Capa_1-2" data-name="Capa 1"><path d="M53.2,51.3l3-2.81a3.55,3.55,0,0,1,2.3-1.12,2.77,2.77,0,0,1,2.13,1,2.8,2.8,0,0,1,.87,2.18,3.51,3.51,0,0,1-1.23,2.25L58.32,54.6,61,57.47l-1,1Zm6.13.75q1.5-1.43.26-2.74t-2.74.13L55,51.15l2.48,2.61Z"/><path d="M74.33,45.79l-1.23,1-3.31-1.37a1.69,1.69,0,0,0-1-.12,2.18,2.18,0,0,0-.91.49l-1.25,1L69.27,50l-1.1.91-6.29-7.6,3.24-2.68a3.77,3.77,0,0,1,2.39-1,2.63,2.63,0,0,1,2,1.09,2.72,2.72,0,0,1,.7,1.84,3,3,0,0,1-.81,1.87,2.11,2.11,0,0,1,1.62.07Zm-6.4-1.5a2.54,2.54,0,0,0,1-1.36,1.61,1.61,0,0,0-.44-1.35,1.57,1.57,0,0,0-1.23-.68,2.59,2.59,0,0,0-1.51.72l-2,1.67L65.92,46Z"/><path d="M78.32,42.17a4.1,4.1,0,0,1-2.31-.5,6,6,0,0,1-2-1.85,6.11,6.11,0,0,1-1.12-2.51A4,4,0,0,1,73.16,35a5.2,5.2,0,0,1,4-2.84,4,4,0,0,1,2.31.5A6.78,6.78,0,0,1,82.57,37a4,4,0,0,1-.27,2.35,4.71,4.71,0,0,1-1.64,1.93A4.64,4.64,0,0,1,78.32,42.17Zm2.95-4a4.42,4.42,0,0,0-1-2.82,4.42,4.42,0,0,0-2.33-1.85,2.83,2.83,0,0,0-2.47.53,2.8,2.8,0,0,0-1.28,2.14,4.42,4.42,0,0,0,1,2.81,4.45,4.45,0,0,0,2.33,1.86A2.78,2.78,0,0,0,80,40.3,2.82,2.82,0,0,0,81.27,38.14Z"/><path d="M88.33,30l5.83,2.32-1.44.89-4.53-1.86-.38,4.89-1.44.89.57-6.27-5.61-2.22,1.44-.89,4.31,1.77.35-4.64L88.86,24Z"/><path d="M97,30.84l-4.74-8.66,1.26-.69,4.74,8.66Z"/><path d="M105.29,15.61l1-.49L110.56,24l-1.18.56-3-6.46-.28,6.28-.89.42-5-3.69,3,6.38-1.18.56-4.23-8.92,1-.5L105,23.3Z"/><path d="M121.54,19.69l-1.85-1.9L115,19.57l-.11,2.65-1.36.52L114.13,12l1.12-.43,7.63,7.65Zm-6.47-1.36,3.75-1.44-3.54-3.65Z"/><path d="M131.13,6.32l1.1-.33,2.8,9.46-1.25.37-2-6.85-1.24,6.16-.94.28L125.2,11l2,6.78-1.25.37-2.8-9.46,1.11-.33,5.37,5.54Z"/><path d="M139.2,14.45l-2.12-9.64,6.26-1.37.25,1.14-4.88,1.07.67,3,4.61-1,.25,1.15-4.61,1,.7,3.19,4.88-1.07.25,1.14Z"/><path d="M154.37,1.61l1.34-.2,1.46,9.76-1.09.16L149.4,4.81l1.1,7.37-1.34.2-1.46-9.76,1.08-.16L155.47,9Z"/><path d="M163.76,10.52l-.7-8.64-3.32.27-.1-1.2L167.75.3l.1,1.2-3.33.27.7,8.64Z"/><path d="M171.88,10l-.2-9.87L178.09,0l0,1.16-5,.1.06,3.11,4.72-.1,0,1.18-4.72.1.07,3.26,5-.1,0,1.16Z"/><path d="M187.8,5.59l1.66.1-.1,1.66-1.66-.1Z"/><path d="M200.32,1.34l4,.58A3.55,3.55,0,0,1,206.67,3a2.77,2.77,0,0,1,.55,2.28,2.79,2.79,0,0,1-1.17,2,3.51,3.51,0,0,1-2.52.43l-2.62-.37-.56,3.91-1.43-.2Zm3.22,5.27q2.05.29,2.31-1.5T204,3l-2.47-.35-.51,3.56Z"/><path d="M217.72,14.47l-1.56-.33-1-3.44a1.69,1.69,0,0,0-.5-.83,2.19,2.19,0,0,0-1-.41l-1.59-.34-.85,4-1.4-.3,2-9.66L216,4a3.77,3.77,0,0,1,2.29,1.23,2.63,2.63,0,0,1,.4,2.26,2.73,2.73,0,0,1-1,1.69,3,3,0,0,1-2,.53,2.11,2.11,0,0,1,1,1.32Zm-2.8-5.95a2.53,2.53,0,0,0,1.67-.08,1.6,1.6,0,0,0,.79-1.19,1.58,1.58,0,0,0-.23-1.39,2.6,2.6,0,0,0-1.5-.74l-2.56-.54L212.36,8Z"/><path d="M223,15.35a4.1,4.1,0,0,1-1-2.12,6,6,0,0,1,.21-2.72,6.11,6.11,0,0,1,1.28-2.44,4,4,0,0,1,2-1.24,5.2,5.2,0,0,1,4.69,1.36,4,4,0,0,1,1,2.12A6.09,6.09,0,0,1,231,13a6.08,6.08,0,0,1-1.28,2.42,4,4,0,0,1-2,1.25,4.71,4.71,0,0,1-2.52-.09A4.64,4.64,0,0,1,223,15.35Zm5-.19a4.41,4.41,0,0,0,1.59-2.53,4.42,4.42,0,0,0,0-3,2.82,2.82,0,0,0-1.95-1.61,2.79,2.79,0,0,0-2.48.33,4.41,4.41,0,0,0-1.58,2.52,4.44,4.44,0,0,0,0,3,2.79,2.79,0,0,0,1.92,1.6A2.82,2.82,0,0,0,228,15.17Z"/><path d="M238.77,15.69l1.79,6L239,21.11l-1.35-4.71-4.07,2.73L232,18.55l5.27-3.44-1.73-5.78,1.59.58,1.28,4.48,3.86-2.6,1.58.58Z"/><path d="M243.49,23l3.86-9.08,1.33.56-3.86,9.08Z"/><path d="M260.6,20.05l1,.51-4.38,8.84-1.17-.58,3.18-6.39-5.1,3.68-.88-.43-.21-6.23-3.12,6.34-1.17-.58,4.38-8.84,1,.52.18,7.71Z"/><path d="M267.47,35.34l.34-2.63-4.29-2.56-2.15,1.56L260.12,31,269,24.73l1,.62-1.27,10.73Zm-2.94-5.92L268,31.47l.67-5Z"/><path d="M283.9,34.57l.94.66-5.69,8.07-1.06-.75,4.13-5.83-5.61,2.85-.8-.56.75-6.19-4.06,5.79-1.06-.75,5.69-8.07.95.67-1,7.65Z"/><path d="M282.53,45.94l6.24-7.65,5,4.06-.74.9-3.87-3.16-2,2.41,3.65,3-.74.91-3.66-3-2.06,2.53,3.87,3.16-.74.9Z"/><path d="M302,49.87l1,.93L296.29,58l-.81-.75,1-9.29-5.08,5.44-1-.93,6.74-7.21.8.75-1,9.31Z"/><path d="M300.88,62.76l6.33-5.92-2.28-2.43.88-.82,5.56,5.94-.88.82-2.29-2.44-6.33,5.92Z"/><path d="M306.33,68.78l7.61-6.29L318,67.43l-.9.74-3.19-3.85-2.39,2,3,3.64-.91.75-3-3.64-2.51,2.08L311.31,73l-.9.74Z"/><path d="M319.66,78.51l1,1.36-1.36,1-1-1.36Z"/><path d="M330.77,85.69l2.06,3.53a3.55,3.55,0,0,1,.56,2.49,3.18,3.18,0,0,1-3.77,2.2,3.51,3.51,0,0,1-1.9-1.71l-1.33-2.29-3.41,2-.73-1.25Zm-2.13,5.8q1,1.79,2.6.88t.5-2.69l-1.25-2.15-3.11,1.81Z"/><path d="M331.27,107.5l-.71-1.43,2.09-2.91a1.68,1.68,0,0,0,.34-.91,2.17,2.17,0,0,0-.27-1L332,99.79l-3.65,1.81-.63-1.28,8.84-4.38,1.87,3.76a3.78,3.78,0,0,1,.46,2.56,2.63,2.63,0,0,1-1.52,1.72,2.73,2.73,0,0,1-2,.26,3,3,0,0,1-1.63-1.21,2.11,2.11,0,0,1-.44,1.56Zm2.93-5.89a2.53,2.53,0,0,0,1.1,1.26,1.6,1.6,0,0,0,1.42-.12,1.58,1.58,0,0,0,.94-1,2.6,2.6,0,0,0-.35-1.64l-1.16-2.35L333,99.26Z"/><path d="M333.89,112.22a4.1,4.1,0,0,1,1-2.13,6,6,0,0,1,2.26-1.53,6.12,6.12,0,0,1,2.7-.51,4,4,0,0,1,2.22.81,5.2,5.2,0,0,1,1.85,4.52,4,4,0,0,1-1,2.13,6.78,6.78,0,0,1-5,2,4,4,0,0,1-2.23-.81,4.7,4.7,0,0,1-1.5-2A4.64,4.64,0,0,1,333.89,112.22Zm3.24,3.79a5.41,5.41,0,0,0,5.31-2.16,2.82,2.82,0,0,0,0-2.52,2.79,2.79,0,0,0-1.79-1.74,5.43,5.43,0,0,0-5.31,2.17,2.79,2.79,0,0,0-.07,2.5A2.82,2.82,0,0,0,337.13,116Z"/><path d="M343.39,124.78l-3.6,5.14-.53-1.61,2.86-4-4.67-1.5-.53-1.61,6,2,3.46-4.94.53,1.61-2.72,3.78,4.43,1.41.53,1.6Z"/><path d="M340.61,133l9.52-2.61.38,1.39L341,134.36Z"/><path d="M353.5,144.58l.24,1.12-9.65,2.05-.27-1.27,7-1.47-6-1.72-.2-1,4.75-4-6.91,1.48-.27-1.27,9.65-2.05.24,1.14-5.94,4.93Z"/><path d="M345.78,159.45l2.28-1.36-.66-5-2.55-.72-.19-1.44L355,154l.16,1.19-9.2,5.66Zm2.82-6,.53,4,4.37-2.6Z"/><path d="M356.58,171.88l.06,1.15-9.85.55-.07-1.3,7.13-.38-5.71-2.63-.05-1L353.4,165l-7.06.41-.07-1.3,9.85-.55.06,1.16-6.62,4Z"/><path d="M346.82,177.87l9.87.16-.1,6.41-1.16,0,.08-5-3.11,0-.08,4.72-1.18,0,.08-4.72L348,179.3l-.08,5-1.16,0Z"/><path d="M355.86,195.54l-.11,1.35-9.84-.79L346,195l7.88-5-7.42-.6.11-1.35,9.84.79-.09,1.09-7.89,5Z"/><path d="M345,202.7l8.57,1.28.49-3.3,1.19.18-1.2,8-1.19-.18.49-3.31-8.57-1.28Z"/><path d="M343.71,210.68l9.65,2.05L352,219l-1.14-.24,1-4.89-3-.65-1,4.61-1.15-.25,1-4.61-3.19-.68-1,4.89-1.14-.24Z"/><path d="M344.36,227.19l-.48,1.6-1.6-.48.48-1.6Z"/><path d="M345.6,240.38l-1.5,3.8a3.55,3.55,0,0,1-1.61,2,3.18,3.18,0,0,1-4.06-1.6,3.5,3.5,0,0,1,.16-2.55l1-2.46-3.67-1.45.53-1.34Zm-5.87,1.92q-.76,1.93.92,2.59t2.43-1.27l.91-2.32L340.64,240Z"/><path d="M328.8,254.29l.68-1.44,3.58-.16a1.7,1.7,0,0,0,.92-.3,2.17,2.17,0,0,0,.62-.83l.7-1.47-3.68-1.74.61-1.29,8.92,4.23-1.8,3.8a3.77,3.77,0,0,1-1.73,1.95,2.63,2.63,0,0,1-2.29-.13,2.73,2.73,0,0,1-1.41-1.37,3,3,0,0,1-.06-2,2.12,2.12,0,0,1-1.5.62Zm6.43-1.35a2.53,2.53,0,0,0-.31,1.64,1.6,1.6,0,0,0,1,1,1.58,1.58,0,0,0,1.4.09,2.6,2.6,0,0,0,1.07-1.29l1.12-2.37-3.14-1.49Z"/><path d="M326.71,259.25a4.11,4.11,0,0,1,2.31-.52,6,6,0,0,1,2.6.83,6.12,6.12,0,0,1,2.07,1.81,4,4,0,0,1,.74,2.25,5.2,5.2,0,0,1-2.41,4.25,4,4,0,0,1-2.31.52,6.78,6.78,0,0,1-4.67-2.64,4,4,0,0,1-.75-2.25,4.7,4.7,0,0,1,.67-2.44A4.65,4.65,0,0,1,326.71,259.25Zm-1,4.9a5.4,5.4,0,0,0,5,2.83,2.83,2.83,0,0,0,2-1.52A2.8,2.8,0,0,0,333,263a5.43,5.43,0,0,0-5-2.82,2.78,2.78,0,0,0-2,1.5A2.82,2.82,0,0,0,325.74,264.15Z"/><path d="M322.75,274.49l-6.26.36.93-1.41,4.9-.22-1.72-4.59.93-1.41,2.13,5.92,6-.35-.93,1.41-4.65.21,1.64,4.35-.93,1.4Z"/><path d="M314.6,277.38l8,5.84-.85,1.16-8-5.84Z"/><path d="M313.49,294.71l-.73.88-7.6-6.29.83-1,5.49,4.56-2.41-5.81.63-.75,6.11,1.22-5.46-4.5.83-1,7.6,6.29-.74.9-7.55-1.6Z"/><path d="M297,297.9l2.48.94,3.47-3.59-1-2.45,1-1,4,10-.84.87L296,298.93Zm6.44-1.51-2.79,2.89,4.75,1.81Z"/><path d="M294,314.07l-.86.76-6.55-7.38,1-.86,4.73,5.35-1.49-6.11.73-.65,5.85,2.14L292.71,302l1-.86,6.55,7.38-.87.77-7.22-2.73Z"/><path d="M283.28,310.13l6,7.82-5.08,3.91-.71-.92,4-3-1.89-2.46-3.74,2.88-.72-.93,3.74-2.88-2-2.58-4,3-.71-.92Z"/><path d="M275,328.22l-1.13.75-5.48-8.21.92-.61,8.83,3.06L274,317l1.13-.75,5.48,8.21-.91.61L270.86,322Z"/><path d="M262.72,324.15l4.31,7.52,2.89-1.66.6,1-7.05,4-.6-1,2.9-1.67-4.31-7.52Z"/><path d="M255.6,328.08l4.38,8.85-5.75,2.84-.52-1,4.48-2.22-1.38-2.79-4.23,2.09-.52-1.05,4.23-2.09-1.45-2.92L250.37,332l-.51-1Z"/><path d="M243.06,338.82l-1.55.62-.62-1.55,1.55-.62Z"/><path d="M233.53,348l-3.91,1.19a3.55,3.55,0,0,1-2.55,0,3.18,3.18,0,0,1-1.27-4.18,3.51,3.51,0,0,1,2.1-1.46l2.53-.77-1.15-3.78,1.38-.42Zm-5.15-3.41q-2,.6-1.46,2.33t2.5,1.11l2.38-.72-1-3.44Z"/><path d="M212.18,343.42l1.55-.36,2.35,2.71a1.7,1.7,0,0,0,.81.54,2.18,2.18,0,0,0,1,0l1.58-.37-.92-4,1.39-.32,2.22,9.62-4.09.95a3.78,3.78,0,0,1-2.6-.15,2.63,2.63,0,0,1-1.32-1.88,2.73,2.73,0,0,1,.2-2,3,3,0,0,1,1.56-1.31,2.11,2.11,0,0,1-1.42-.79Zm5.05,4.21a2.53,2.53,0,0,0-1.48.78,1.61,1.61,0,0,0-.21,1.41,1.58,1.58,0,0,0,.8,1.16,2.6,2.6,0,0,0,1.67,0l2.55-.59-.78-3.38Z"/><path d="M207,344.87a4.1,4.1,0,0,1,1.84,1.48,6,6,0,0,1,1,2.56,6.11,6.11,0,0,1-.13,2.75,4,4,0,0,1-1.3,2,5.21,5.21,0,0,1-4.83.75,4,4,0,0,1-1.84-1.49,6.77,6.77,0,0,1-.83-5.3,4,4,0,0,1,1.3-2,4.7,4.7,0,0,1,2.33-1A4.64,4.64,0,0,1,207,344.87Zm-4.44,2.28a5.41,5.41,0,0,0,.88,5.67,2.83,2.83,0,0,0,2.44.63,2.8,2.8,0,0,0,2.11-1.34,5.43,5.43,0,0,0-.88-5.67,2.78,2.78,0,0,0-2.42-.64A2.82,2.82,0,0,0,202.54,347.15Z"/><path d="M192.59,351.22l-4.17-4.69,1.69-.15,3.21,3.7,2.53-4.19,1.69-.15-3.32,5.34,4,4.5-1.69.15-3.06-3.52-2.4,4-1.67.14Z"/><path d="M185.25,346.63l.36,9.86-1.44.05-.35-9.86Z"/><path d="M171,356.52l-1.15,0,.21-9.87,1.3,0-.16,7.14,3.06-5.5,1,0,2.84,5.55.13-7.07,1.3,0-.21,9.87-1.16,0-3.44-6.91Z"/><path d="M158.26,345.61l.81,2.53,5,.49,1.28-2.32,1.45.14-5.33,9.4-1.2-.12-3.42-10.25Zm5.18,4.11-4-.39,1.54,4.85Z"/><path d="M143.7,353.3l-1.13-.2,1.71-9.72,1.28.23-1.25,7,3.86-5,1,.17,2,5.92,1.21-7,1.28.23-1.71,9.72-1.14-.2-2.34-7.35Z"/><path d="M140.1,342.43,137.7,352l-6.22-1.56.28-1.13,4.85,1.22.76-3-4.58-1.15.29-1.14,4.58,1.15.79-3.16L133.6,342l.28-1.13Z"/><path d="M120.82,347.16l-1.29-.42,3-9.39,1.05.34,3.07,8.82,2.29-7.09,1.29.42-3,9.39-1-.34-3.08-8.84Z"/><path d="M116.39,335l-3.22,8,3.09,1.24-.45,1.12-7.55-3,.45-1.12,3.11,1.25,3.23-8Z"/><path d="M108.89,331.85l-4.23,8.92L98.87,338l.5-1,4.52,2.14,1.33-2.81-4.26-2,.5-1.06,4.26,2,1.4-2.95-4.52-2.14.5-1Z"/><path d="M92.69,328.66l-1.44-.83.83-1.44,1.44.83Z"/><path d="M79.59,326.84l-3.36-2.33a3.55,3.55,0,0,1-1.56-2,3.18,3.18,0,0,1,2.49-3.59,3.5,3.5,0,0,1,2.45.75l2.17,1.51L84,317.91l1.18.82Zm-.52-6.15q-1.7-1.18-2.73.3t.68,2.65l2,1.42,2.05-3Z"/><path d="M69.93,307.3l1.25,1-.66,3.52a1.69,1.69,0,0,0,.08,1,2.19,2.19,0,0,0,.67.79l1.27,1,2.54-3.18,1.12.89L70,320l-3.28-2.62a3.77,3.77,0,0,1-1.5-2.13,2.63,2.63,0,0,1,.66-2.2A2.73,2.73,0,0,1,67.56,312a3,3,0,0,1,2,.41,2.12,2.12,0,0,1-.26-1.61Zm-.16,6.57a2.54,2.54,0,0,0-1.53-.68,1.61,1.61,0,0,0-1.24.71,1.57,1.57,0,0,0-.41,1.35,2.6,2.6,0,0,0,1,1.34l2,1.63,2.17-2.71Z"/><path d="M65.56,304.12a4.1,4.1,0,0,1,0,2.36,6,6,0,0,1-1.4,2.34,6.12,6.12,0,0,1-2.23,1.6,4,4,0,0,1-2.35.21A5.2,5.2,0,0,1,56,307.32,4,4,0,0,1,56,305,6.78,6.78,0,0,1,59.61,301a4,4,0,0,1,2.36-.21A4.7,4.7,0,0,1,64.19,302,4.63,4.63,0,0,1,65.56,304.12ZM61,302.05a5.41,5.41,0,0,0-3.89,4.21,2.82,2.82,0,0,0,1,2.31,2.8,2.8,0,0,0,2.36.82,5.43,5.43,0,0,0,3.89-4.21,2.79,2.79,0,0,0-1-2.29A2.82,2.82,0,0,0,61,302.05Z"/><path d="M51.63,296.77l1.08-6.18,1.16,1.23-.9,4.82,4.86-.62L59,297.25l-6.25.72-1,5.94-1.16-1.23.86-4.58-4.61.6-1.15-1.22Z"/><path d="M50.66,288.17l-7.51,6.41-.94-1.1,7.51-6.41Z"/><path d="M34,283.13l-.69-.92,7.86-6,.79,1-5.7,4.3,6.21-1,.59.78L40.52,287l5.62-4.28.79,1-7.86,6-.7-.93,3.28-7Z"/><path d="M34.71,266.39l-1.48,2.2,2.71,4.2,2.62-.44.79,1.22-10.68,1.65-.65-1,5.92-9Zm0,6.61-2.17-3.38-2.85,4.21Z"/><path d="M19.66,259.77l-.55-1,8.69-4.69.62,1.15-6.29,3.38,6.29-.05.47.86-3.43,5.21,6.21-3.37.62,1.15-8.69,4.69-.55-1,4.31-6.4Z"/><path d="M26,250.19l-9,4.06-2.64-5.84,1.06-.48,2.05,4.56,2.83-1.28-1.94-4.3,1.07-.48,1.94,4.3,3-1.34-2.05-4.56,1.06-.48Z"/><path d="M10.26,238l-.47-1.27L19,233.26l.39,1-5,7.88,7-2.6.47,1.27-9.25,3.44-.38-1,5-7.9Z"/><path d="M17,227l-8.31,2.46.95,3.19L8.53,233l-2.31-7.8,1.15-.34,1,3.21,8.31-2.46Z"/><path d="M14.88,219.15l-9.62,2.21-1.44-6.25L5,214.85l1.12,4.87,3-.7L8,214.43l1.15-.26,1.06,4.6,3.18-.73-1.12-4.87,1.13-.26Z"/><path d="M7.32,204.43l-.24-1.65,1.65-.24L9,204.19Z"/><path d="M.62,193,.37,189A3.55,3.55,0,0,1,1,186.48a2.77,2.77,0,0,1,2.13-1,2.79,2.79,0,0,1,2.23.73,3.5,3.5,0,0,1,.93,2.38l.17,2.64,3.94-.25.09,1.44Zm4.51-4.22q-.13-2.07-1.93-2T1.54,189l.16,2.49,3.59-.22Z"/><path d="M10,173.36l0,1.6-3.19,1.63a1.7,1.7,0,0,0-.72.65,2.18,2.18,0,0,0-.22,1l0,1.62,4.07.07,0,1.43L0,181.21.07,177a3.78,3.78,0,0,1,.77-2.49A2.63,2.63,0,0,1,3,173.7a2.72,2.72,0,0,1,1.85.67,3,3,0,0,1,.89,1.83A2.11,2.11,0,0,1,6.84,175Zm-5.3,3.89a2.54,2.54,0,0,0-.4-1.62A1.6,1.6,0,0,0,3,175.08a1.57,1.57,0,0,0-1.32.5,2.59,2.59,0,0,0-.44,1.62l0,2.62,3.47.06Z"/><path d="M9.72,167.93a4.1,4.1,0,0,1-1.86,1.45,6,6,0,0,1-2.71.36A6.11,6.11,0,0,1,2.5,169a4,4,0,0,1-1.63-1.72,4.72,4.72,0,0,1-.43-2.48,4.76,4.76,0,0,1,.79-2.4,4,4,0,0,1,1.86-1.45,6.08,6.08,0,0,1,2.71-.35,6.08,6.08,0,0,1,2.63.75,4,4,0,0,1,1.63,1.72,4.71,4.71,0,0,1,.43,2.49A4.64,4.64,0,0,1,9.72,167.93Zm-1.21-4.84a4.42,4.42,0,0,0-2.8-1,4.42,4.42,0,0,0-2.92.6,2.83,2.83,0,0,0-1.17,2.24,2.79,2.79,0,0,0,.83,2.36,4.42,4.42,0,0,0,2.79,1,4.45,4.45,0,0,0,2.92-.6,2.78,2.78,0,0,0,1.18-2.21A2.82,2.82,0,0,0,8.51,163.09Z"/><path d="M6.81,152.49l5.51-3-.24,1.68-4.33,2.29,3.51,3.42L11,158.55l-4.45-4.45L1.27,157l.24-1.68,4.12-2.18L2.29,149.9l.24-1.66Z"/><path d="M13,146.38l-9.69-1.9.28-1.42,9.68,1.9Z"/><path d="M6.59,130.22l.29-1.11,9.56,2.46-.33,1.26L9.2,131l4.65,4.23-.25.95-6.05,1.49,6.85,1.75-.33,1.26-9.56-2.47.29-1.12,7.51-1.76Z"/><path d="M20.14,120.34l-2.64.2-1.62,4.73,2,1.78-.47,1.38-7.91-7.36.39-1.14,10.76-1Zm-5.19,4.1,1.3-3.8-5.07.38Z"/><path d="M16,104.43l.46-1.05,9.06,3.91-.52,1.2-6.55-2.84,3.94,4.9-.39.9L15.8,112l6.5,2.79-.52,1.2L12.72,112l.46-1.07,7.69-.58Z"/><path d="M27.43,103.42l-8.76-4.55,3-5.69,1,.54-2.3,4.44,2.76,1.43,2.17-4.19,1,.54-2.17,4.19,2.89,1.5,2.3-4.44,1,.54Z"/><path d="M27.28,83.57,28,82.41l8.44,5.13-.57.95-9.29,1,6.37,3.87-.71,1.16-8.43-5.13.57-.93,9.31-1Z"/><path d="M40.14,82.05l-7.08-5-1.92,2.72-1-.69,4.68-6.65,1,.69-1.93,2.74,7.08,5Z"/><path d="M44.93,75.48l-7.71-6.17,4-5,.91.73L39,68.94l2.43,1.94,2.95-3.68.92.73-2.95,3.68,2.55,2L48,69.75l.91.73Z"/><path d="M51.75,60.44l1.14-1.21,1.21,1.14L53,61.58Z"/></g></g></svg>