<svg xmlns="http://www.w3.org/2000/svg" viewBox="0 0 16.36 14.76"><defs><style>.cls-1{stroke:#000;stroke-miterlimit:10;stroke-width:0.5px;}</style></defs><title>Recurso 6</title><g id="Capa_2" data-name="Capa 2"><g id="Capa_1-2" data-name="Capa 1"><path class="cls-1" d="M11.7.79a.33.33,0,0,0-.25.62A6.47,6.47,0,0,1,9,13.85a.33.33,0,0,0,0,.67A7.13,7.13,0,0,0,11.7.79Z"/><path class="cls-1" d="M9,12A4.63,4.63,0,1,0,9,2.75a.33.33,0,1,0,0,.67,4,4,0,1,1,0,7.93A.33.33,0,0,0,9,12Z"/><path class="cls-1" d="M10.07,8.55a.33.33,0,0,0,.45.49A2.26,2.26,0,0,0,9,5.12a.33.33,0,1,0,0,.67,1.6,1.6,0,0,1,1.59,1.59A1.58,1.58,0,0,1,10.07,8.55Z"/><path class="cls-1" d="M7.52.28a.33.33,0,0,0-.36.07L3.63,3.87h-3a.33.33,0,0,0-.33.33v6.36a.33.33,0,0,0,.33.33H3.64l3.52,3.52a.33.33,0,0,0,.24.1l.13,0a.33.33,0,0,0,.21-.31V.58A.33.33,0,0,0,7.52.28Zm-.46,13.1-3-3H4a.33.33,0,0,0-.24-.1H.92V4.54H3.77A.33.33,0,0,0,4,4.44l3.05-3Z"/></g></g></svg>